<svg xmlns="http://www.w3.org/2000/svg" viewBox="0 0 20 20"><path fill-rule="evenodd" d="M18.03 1.97a3.1 3.1 0 0 0-4.4 0l-11 11-.04.04c-.2.21-.38.38-.52.6-.12.17-.21.37-.28.58-.07.23-.1.48-.13.77V15l-.32 2.82a.75.75 0 0 0 .83.83l2.82-.31h.05c.3-.04.54-.07.77-.14.21-.07.4-.16.59-.28.2-.14.38-.31.59-.52l.04-.04 11-11a3.1 3.1 0 0 0 0-4.4ZM14.7 3.03a1.6 1.6 0 0 1 2.27 2.27l-11 11c-.27.27-.33.33-.4.37a.92.92 0 0 1-.22.11c-.07.02-.15.04-.53.08l-1.89.2.21-1.88c.04-.38.06-.46.08-.53a.92.92 0 0 1 .1-.22c.05-.07.1-.13.37-.4l11-11Z" clip-rule="evenodd"/></svg>
